<svg xmlns="http://www.w3.org/2000/svg" width="51" height="71" viewBox="0 0 51 71" fill="none"><path d="M26.9172 0.451172C30.6151 4.15226 33.864 8.46815 35.4354 13.5259C37.4232 19.3378 36.4762 25.9284 33.3783 31.1747C31.6559 34.3594 29.0682 36.9292 26.9457 39.827C24.1988 43.6961 22.1295 48.4178 22.6601 53.2665C22.9131 56.7216 24.8274 59.9432 27.558 62.0171C30.3702 64.1607 34.0109 65.1362 37.517 64.7837C39.8598 64.5091 42.0802 63.6156 44.1169 62.4434C41.8884 65.0092 38.8191 66.8454 35.4681 67.4479C30.6641 68.3004 25.4723 67.6487 21.2764 65.046C14.852 61.2917 11.146 53.7092 11.3704 46.3398C11.297 41.9583 12.4316 37.626 14.1867 33.638C10.7664 38.04 8.74597 43.5896 8.93781 49.2047C9.18678 55.9265 12.2561 62.5827 17.4438 66.8945C19.2112 68.37 21.2438 69.4603 23.3172 70.4358C17.501 69.8415 11.7664 67.4315 7.70517 63.132C2.43994 57.6848 -0.180435 49.8113 0.631808 42.2821C1.32159 36.0275 4.73379 30.4288 8.99498 25.9571C11.7541 22.961 15.048 20.5305 17.8479 17.5753C20.9091 14.3497 23.7009 10.7716 25.4152 6.63192C26.2111 4.66049 26.9825 2.61525 26.9172 0.451172Z" fill="white"></path><path d="M39.9252 22.1535C40.2599 19.5591 39.7252 16.9769 39.6191 14.3906C44.1006 21.26 48.121 28.6745 49.521 36.8636C50.6026 42.6345 50.9087 49.0653 47.7945 54.287C44.77 59.7095 37.7579 62.3572 31.913 60.4022C28.5008 59.2218 26.0682 55.7256 26.1499 52.1024C25.958 46.9299 29.1417 42.4746 32.3212 38.7162C36.3415 34.0806 39.3946 28.3507 39.9252 22.1535Z" fill="#D1A132"></path></svg>